<svg xmlns="http://www.w3.org/2000/svg" viewBox="0 0 2048 2048" width="1000" height="1000">
 <g fill="#f5c400">
  <polygon points="264,229 886,1287 934,1200 415,314 1875,314 1833,229"></polygon>
  <polygon points="227,287 180,364 886,1558 1334,787 1236,787 885,1388"></polygon>
  <polygon points="504,368 965,1150 1014,1066 655,454 1944,454 1901,368"></polygon>
  <polygon points="148,415 100,493 886,1830 1491,786 1394,786 886,1660"></polygon>
  <polygon points="1971,508 746,508 799,595 1821,595 1105,1830 1203,1830"></polygon>
  <polygon points="1731,647 829,647 880,733 1581,734 947,1830 1047,1830"></polygon>
	</g>
</svg>
